<svg width="386" height="13" viewBox="0 0 386 13" fill="none" xmlns="http://www.w3.org/2000/svg">
<mask id="mask0_1_121" style="mask-type:alpha" maskUnits="userSpaceOnUse" x="0" y="0" width="386" height="13">
<rect x="0.709229" y="0.17807" width="385" height="12" fill="#C4C4C4"/>
</mask>
<g mask="url(#mask0_1_121)">
<path d="M58.5375 -2.35989L59.4784 -2.51807L57.6474 -2.74485L58.5251 -2.91085C59.4053 -2.90933 60.5457 -2.66059 61.1662 -2.79276C61.242 -2.92072 60.2836 -2.96179 60.0391 -3.06374C59.8227 -3.16824 59.646 -3.27206 59.5113 -3.37395C59.9906 -3.37285 60.5176 -3.34821 61.0609 -3.30146C61.7918 -3.22512 62.5086 -3.188 63.1323 -3.19422C64.4078 -3.1736 65.64 -3.19417 67.0267 -3.18964L66.5654 -3.4976L68.3525 -3.42555C68.5419 -3.40209 68.7677 -3.43982 68.9538 -3.4108C70.5027 -3.16522 71.158 -3.29904 71.9016 -3.41C72.054 -3.43871 72.2377 -3.46015 72.4476 -3.47375C74.5138 -3.41492 76.3769 -3.07071 78.2376 -2.894C78.5879 -2.84888 78.9238 -2.79097 79.2215 -2.72436C79.8687 -2.59488 80.5886 -2.48917 81.3154 -2.4169C82.0422 -2.34462 82.7525 -2.30809 83.3817 -2.31064C84.7728 -2.3135 86.3445 -2.22786 87.9447 -2.06201C88.4206 -2.00738 88.8967 -1.97134 89.3429 -1.95619C89.789 -1.94104 90.1953 -1.9471 90.5358 -1.974L91.6177 -1.7982C92.0867 -1.86954 92.6813 -1.90868 93.3655 -1.91324C94.0498 -1.9178 94.8094 -1.8877 95.5982 -1.82476C96.4388 -1.75648 97.2926 -1.71045 98.1648 -1.63827C99.9664 -1.50025 101.72 -1.41585 103.37 -1.38768C105.829 -1.30418 108.23 -1.23963 110.71 -1.13554C112.262 -1.08529 113.773 -1.05766 115.236 -1.05278C116.988 -1.03312 118.883 -0.937984 120.83 -0.771948C120.738 -0.616169 119.884 -0.662191 119.311 -0.667463C117.463 -0.693355 115.571 -0.760449 113.669 -0.810851C112.813 -0.830525 111.98 -0.837977 111.175 -0.833152C109.83 -0.83961 108.411 -0.881117 106.944 -0.956966C104.627 -1.04043 102.384 -1.08054 100.238 -1.07691C100.07 -1.07074 99.9157 -1.05981 99.7782 -1.04429C99.7495 -1.03086 99.7439 -1.01391 99.7618 -0.995083C99.7797 -0.976258 99.8206 -0.956175 99.8805 -0.936767C99.9404 -0.91736 100.017 -0.899277 100.104 -0.884244C100.191 -0.869208 100.284 -0.857726 100.375 -0.850902C101.228 -0.74533 102.143 -0.631943 102.947 -0.615993C102.978 -0.614799 103.011 -0.612078 103.044 -0.60802C103.077 -0.603963 103.108 -0.598671 103.136 -0.592533C104.936 -0.36966 106.416 -0.407375 107.817 -0.371114C110.145 -0.273114 112.388 -0.227338 114.514 -0.234477C114.835 -0.233992 115.182 -0.221252 115.542 -0.196719C117.768 -0.0972694 119.85 -0.0861465 121.69 -0.163853C122.447 -0.183541 123.151 -0.227735 123.965 -0.228474C124.466 -0.231515 124.902 -0.259718 125.247 -0.311393C125.592 -0.363069 125.839 -0.437148 125.973 -0.529176C126.316 -0.480724 126.665 -0.437543 127.015 -0.40015C127.224 -0.378769 127.424 -0.373089 127.575 -0.384278C127.727 -0.395466 127.818 -0.422686 127.83 -0.460431C127.893 -0.566139 127.416 -0.619224 127.002 -0.664491C127.251 -0.687161 127.533 -0.700498 127.839 -0.70418C129.563 -0.728334 131.412 -0.699826 133.346 -0.619282C134.848 -0.522873 136.046 -0.601343 137.626 -0.465387C137.816 -0.441926 137.972 -0.47636 138.146 -0.484628C138.601 -0.528166 139.167 -0.537952 139.796 -0.51313C140.425 -0.488307 141.097 -0.429625 141.755 -0.342175C142.575 -0.581096 144.344 -0.308149 145.652 -0.283618C146.054 -0.162115 145.592 -0.183475 145.572 -0.150094C145.553 -0.116712 145.572 -0.150101 145.415 -0.169652C144.11 0.00241801 142.322 0.0399381 140.302 -0.0623647C139.928 -0.0619393 139.572 -0.0541005 139.237 -0.0389229C138.73 -0.0174401 138.158 -0.0195851 137.547 -0.045264C136.879 -0.0641227 136.265 -0.0551663 135.735 -0.0188261C135.43 -0.0194176 135.172 -0.0012125 134.986 0.0341128C134.799 0.069439 134.689 0.120742 134.666 0.18325C134.87 0.231441 135.096 0.275535 135.335 0.313783C136.582 0.4648 137.827 0.52731 138.823 0.489014C140.556 0.423029 142.619 0.487419 144.462 0.464894C145.708 0.455768 147.034 0.481761 148.415 0.54239C148.415 0.54239 148.379 0.603589 148.376 0.609152C148.539 0.63565 148.711 0.656909 148.881 0.671714C148.881 0.671714 148.881 0.671715 148.897 0.643897C148.822 0.617182 148.719 0.592052 148.601 0.571414L148.191 0.520582C148.47 0.507353 148.73 0.467968 149.021 0.492032C149.634 0.536738 150.219 0.555612 150.742 0.547532C151.265 0.539451 151.715 0.504578 152.065 0.445009C152.685 0.36866 153.456 0.333942 154.328 0.343092C154.996 0.334756 155.641 0.316843 156.258 0.289437C156.258 0.289437 156.297 0.222681 156.589 0.187199C156.313 0.143437 156.024 0.107701 155.737 0.0816318C154.488 0.0165025 153.235 -0.0430629 152.008 -0.0875904C151.556 -0.0924013 151.131 -0.0849403 150.741 -0.0653539C149.661 -0.0424346 148.448 -0.0749645 147.172 -0.161045C147.172 -0.161045 146.919 -0.192323 146.793 -0.207963C147.151 -0.354717 148.385 -0.207799 148.885 -0.307184C149.189 -0.305376 149.724 -0.292878 149.705 -0.319043C149.664 -0.353956 149.659 -0.386393 149.691 -0.414021C149.723 -0.44165 149.791 -0.463791 149.891 -0.478851C149.99 -0.493913 150.119 -0.501526 150.267 -0.50114C150.415 -0.500752 150.579 -0.492372 150.747 -0.476612C152.153 -0.391348 153.476 -0.367636 154.637 -0.406931C155.077 -0.406174 155.571 -0.380902 156.007 -0.37458C156.275 -0.366964 156.519 -0.371199 156.726 -0.387051C157.782 -0.503793 159.202 -0.512319 160.773 -0.411348C161.533 -0.375045 162.243 -0.370192 162.866 -0.397033C163.309 -0.401836 163.497 -0.318837 163.813 -0.279736L165.153 -0.197312L163.432 -0.0940318C163.8 0.142653 164.092 0.220695 164.694 0.23544C165.571 0.257707 166.425 0.267767 167.251 0.265557C167.862 0.263611 168.367 0.212641 169.194 0.303174C169.341 0.317941 169.481 0.322719 169.593 0.316712C170.562 0.236336 171.729 0.21789 173.014 0.262633C173.679 0.112124 174.812 0.258458 175.861 0.376362C176.199 0.262989 175.586 0.210948 175.22 0.141772C176.097 0.148854 176.981 0.14481 177.886 0.161364C178.158 0.155339 178.469 0.165647 178.795 0.191481C179.121 0.217313 179.452 0.257963 179.763 0.310252C179.915 0.344039 180.097 0.369467 180.273 0.381258C180.449 0.393047 180.605 0.390297 180.708 0.373576C181.178 0.324262 181.931 0.369683 182.319 0.286383C182.457 0.267226 182.654 0.264552 182.875 0.278829C183.097 0.293104 183.328 0.323406 183.527 0.364303C183.309 0.377063 183.115 0.397156 182.949 0.42414C182.355 0.511795 182.573 0.658258 183.328 0.871189C184.487 0.859479 185.671 0.862804 186.745 0.822673C187.344 0.786649 188.078 0.79791 188.864 0.855195C189.65 0.912477 190.458 1.01351 191.196 1.14693C191.463 1.19824 191.767 1.23377 192.048 1.24648C192.33 1.25919 192.567 1.24814 192.714 1.21552C192.805 1.1778 192.833 1.13005 192.796 1.07643L192.039 0.982595C192.039 0.982595 192.068 0.932523 192.075 0.921396L193.164 0.912982C193.74 0.91269 194.342 0.92744 194.886 0.923238C195.687 0.895294 196.6 0.910869 197.57 0.968998C198.465 1.0286 199.345 1.07366 200.201 1.10376C201.03 1.13475 201.631 1.03596 202.42 1.02019C203.016 1.0083 203.672 1.021 204.363 1.05782C205.556 1.1231 206.651 1.12323 207.548 1.05817C208.594 1.40869 209.103 1.46568 210.074 1.37097L210.53 1.34391L210.655 1.41909L211.004 1.40256C211.656 1.38783 212.309 1.37311 212.99 1.36786C213.937 1.40039 214.959 1.48791 215.957 1.62187C216.146 1.64533 216.404 1.72504 216.571 1.78744C216.737 1.84985 217.1 2.03811 217.366 2.16066C217.076 2.25013 216.754 2.33568 216.523 2.43853C216.5 2.4561 216.503 2.47705 216.53 2.4997C216.558 2.52235 216.61 2.54607 216.682 2.56894C216.754 2.59181 216.844 2.6132 216.945 2.6314C217.047 2.6496 217.156 2.66409 217.265 2.67372C217.477 2.69446 217.687 2.70828 217.885 2.71463C218.86 2.72557 219.794 2.71744 220.678 2.69031C221.001 2.65205 221.442 2.64841 221.933 2.67999C222.424 2.71157 222.936 2.77655 223.387 2.86462C224.544 2.81175 225.887 2.82737 227.325 2.9104C228.846 2.8599 230.683 2.96203 232.104 2.85138C232.071 2.90702 232.218 3.0028 232.422 3.05799C232.746 3.14182 233.112 3.21951 233.506 3.28777L236.511 3.42104C236.623 3.48957 236.764 3.55894 236.93 3.62825C237.044 3.683 237.243 3.73658 237.485 3.77762C237.726 3.81866 237.991 3.84395 238.223 3.84812C238.821 3.86843 239.323 3.82302 240.035 3.9352C238.938 4.04125 237.457 4.02716 235.857 3.89545C234.354 3.79527 232.908 3.74521 231.573 3.74711C231.133 3.74635 230.554 3.7522 230.416 3.8128C230.111 3.98406 229.314 3.95699 228.384 3.9254C227.653 3.89082 226.986 3.8947 226.437 3.93672C225.887 3.97875 225.472 4.05772 225.225 4.16714C225.162 4.27284 225.312 4.36307 225.953 4.42458L228.62 4.67123C229.013 4.63952 229.386 4.60198 229.737 4.55877C230.329 4.50139 231.059 4.48563 231.872 4.51274C232.685 4.53985 233.557 4.60909 234.422 4.71508C234.864 4.76982 235.306 4.82456 235.627 4.79855C235.908 4.76867 236.167 4.7329 236.402 4.6915C236.449 4.66375 236.468 4.63181 236.458 4.59692C236.628 4.61314 236.798 4.63424 236.963 4.65948C238.28 4.95392 239.299 4.94882 240.226 4.87245C240.476 4.84975 240.667 4.81366 240.921 4.7854C241.175 4.75713 241.264 4.72045 241.495 4.73112C243.336 4.82769 243.866 4.50516 245.417 4.51811C245.493 4.50552 245.54 4.48668 245.553 4.46334C245.567 4.44001 245.548 4.41293 245.496 4.38459C245.387 4.359 245.26 4.337 245.127 4.3206C244.995 4.3042 244.861 4.29394 244.738 4.29075C244.025 4.24936 243.394 4.26205 242.955 4.32665C242.644 4.35305 242.315 4.37409 241.969 4.38964L240.416 3.92257C241.92 3.96539 243.343 3.96511 244.652 3.92174C244.938 3.89738 245.421 3.93934 245.823 3.94732L248.779 3.99097C249.387 3.99459 249.905 3.92137 250.753 4.09205C250.753 4.09205 251.312 4.11958 251.462 4.09627C251.611 4.07297 252.273 3.92802 252.668 3.8336C253.126 3.86052 253.761 3.93316 254.047 3.90881C254.545 3.84899 254.977 3.7723 255.334 3.68012L257.12 3.81171C257.118 3.92861 257.053 4.03858 256.926 4.13996C256.786 4.23773 256.791 4.35509 256.939 4.48244C257.088 4.6098 257.375 4.74353 257.779 4.87272L259.542 5.55692C259.83 5.60274 260.137 5.63358 260.421 5.64526C260.705 5.65694 260.953 5.64889 261.13 5.6222C261.889 5.54297 262.739 5.48103 263.497 5.4018C264.476 5.52301 264.225 5.71879 264.936 5.89052L267.241 6.17595C267.592 6.44045 267.95 6.69382 266.881 6.78237C266.669 6.79786 266.812 6.89921 266.618 6.94086C267.449 7.13936 268.363 7.19878 269.205 7.32104C269.538 7.40897 269.815 7.50204 270.025 7.59576C270.256 7.73689 270.723 7.88104 271.326 7.99711C271.93 8.11317 272.621 8.19182 273.25 8.21608C274.305 8.29039 275.386 8.40199 276.443 8.54589C276.804 8.59592 277.175 8.63239 277.531 8.6528C277.888 8.67322 278.22 8.67713 278.508 8.66426C279.531 8.6416 280.397 8.56369 281.049 8.43559C281.694 8.32688 282.564 8.27448 283.579 8.28315C285.316 8.4982 285.666 8.82225 286.717 9.10767L284.902 9.13967C284.836 9.25094 284.956 9.39124 284.212 9.38867C283.468 9.3861 283.845 9.49257 284.087 9.60008C284.172 9.65417 284.338 9.7098 284.556 9.75757C284.775 9.80533 285.033 9.84229 285.287 9.86219L286.832 9.9998C287.38 10.0522 287.91 10.0745 288.364 10.0644C288.819 10.0543 289.18 10.0122 289.407 9.94256C289.669 9.87645 290.03 9.83174 290.468 9.81115C291.026 9.75723 291.486 9.67703 291.829 9.57359L294.01 9.7243C294.103 9.62035 294.402 9.54747 294.858 9.51797C295.314 9.48846 295.898 9.50415 296.512 9.56239L297.982 9.65489C299.617 9.75581 299.975 9.72259 300.454 9.42952L298.494 8.90606C298.779 8.76818 299.054 8.64699 299.329 8.52579C298.84 8.35333 298.189 8.19022 297.44 8.05301C296.742 7.90558 296.023 7.76279 295.288 7.62519C294.49 7.48458 293.648 7.36232 292.657 7.20381C292.484 7.15254 292.233 7.0617 291.912 6.97419C291.591 6.88914 291.256 6.80577 290.908 6.72441C290.974 6.61314 291.033 6.513 290.907 6.38383C291.516 6.42504 292.147 6.49713 292.74 6.59358C293.334 6.69004 293.872 6.80783 294.307 6.93634C294.38 6.95912 294.469 6.98053 294.569 6.99911C294.669 7.01768 294.778 7.033 294.887 7.04401C295.958 7.12297 296.47 7.28792 296.994 7.49017C297.347 7.59356 297.802 7.68538 298.296 7.75288C299.243 7.87019 300.17 8.02087 301.076 8.15096C301.353 8.1943 301.641 8.22998 301.928 8.25652C302.875 8.34091 303.828 8.45891 304.738 8.60452C305.035 8.64153 305.32 8.6905 305.57 8.74735C305.819 8.8042 306.025 8.86726 306.171 8.93129C305.946 9.00143 305.824 9.08997 305.813 9.19157C305.774 9.25833 306.439 9.39443 306.753 9.49308C307.067 9.59172 306.451 9.54524 306.242 9.55517C305.383 9.57425 305.224 9.61424 305.738 9.83319C305.91 9.90203 306.024 9.97092 306.073 10.0356C306.122 10.1002 306.105 10.1592 306.024 10.209C305.902 10.4148 305.531 10.5838 305.276 10.7852C305.671 10.9178 306.333 11.0594 306.405 11.2236C306.44 11.2601 306.513 11.2987 306.619 11.3366C306.726 11.3746 306.863 11.411 307.02 11.4432C307.436 11.5127 307.814 11.5958 308.125 11.6861C308.436 11.7764 308.671 11.8714 308.813 11.9638C308.859 12.002 308.972 12.0426 309.127 12.0773C309.282 12.1121 309.47 12.1385 309.651 12.1512C309.868 12.1668 310.062 12.1647 310.193 12.1454C310.324 12.1261 310.383 12.091 310.356 12.0474C310.361 11.9655 310.333 11.8801 310.27 11.792C310.307 11.7308 310.343 11.6696 310.2 11.5682C310.847 11.6052 311.526 11.6793 312.164 11.7825C312.802 11.8857 313.374 12.0141 313.818 12.1536C314.308 12.298 314.76 12.4496 315.304 12.6185C315.192 12.8076 315.192 12.8076 316.349 13.1421L322.488 13.3051L323.746 13.5267C324.919 13.7197 325.198 13.7065 325.935 13.6067L326.431 13.5129C327.473 13.6419 328.673 13.7905 329.324 13.5487C329.536 13.7063 329.674 13.7592 329.626 13.7831C329.315 14.0157 328.775 14.213 328.026 14.3673C327.835 14.4034 327.701 14.4584 327.479 14.4906C326.762 14.6722 326.595 14.9528 327.014 15.275C327.221 15.4176 327.523 15.5636 327.909 15.7084C327.344 15.9093 326.596 16.0757 325.684 16.2032C324.91 16.3019 324.273 16.434 323.791 16.5958C323.358 16.7589 322.709 16.8816 321.883 16.9567C321.463 16.9886 321.157 17.0516 320.995 17.1394C320.947 17.377 321.058 17.6314 321.325 17.8969C321.376 17.9777 321.519 18.065 321.744 18.1519C321.969 18.2388 322.269 18.323 322.621 18.3978C322.621 18.3978 322.791 18.4546 322.873 18.4886C322.94 18.7764 322.686 19.03 322.127 19.2323C322.035 19.2898 321.848 19.3312 321.584 19.3523C321.321 19.3734 320.992 19.3732 320.633 19.3519C319.874 19.3176 319.164 19.3133 318.43 19.2941C317.639 19.2668 316.942 19.2883 316.413 19.3562C315.884 19.4241 315.542 19.536 315.423 19.68C315.415 19.7208 315.392 19.7599 315.354 19.7969C315.331 19.8159 315.319 19.8364 315.317 19.8581L317.003 20.3296L315.096 20.5174C314.984 20.7066 315.899 20.82 316.358 20.9604L316.075 21.0388C315.71 21.0831 315.218 20.9983 314.772 20.9491L314.33 20.8944L314.278 20.9834C314.002 21.1046 312.999 20.9683 312.607 21.0572C312.216 21.1461 312.495 21.2464 313.082 21.3429C313.49 21.4147 313.928 21.4719 314.363 21.5103C314.798 21.5486 315.219 21.5672 315.594 21.5644C315.818 21.5549 316.004 21.5332 316.14 21.5007C316.932 21.3621 317.806 21.2429 318.757 21.1441C319.486 21.0553 320.399 21.0175 321.432 21.0334C321.735 21.0267 322.101 21.0478 322.464 21.0928C322.828 21.1379 323.167 21.204 323.421 21.2798L323.956 21.2922C323.956 21.2922 324.248 21.3703 324.207 21.3831C324.003 21.6143 324.24 21.897 324.881 22.1892L324.324 22.2157C323.526 22.1886 324.032 22.3647 323.913 22.4514C323.346 22.435 322.61 22.3618 322.342 22.4719L321.94 22.4639L322.098 22.4834L322.289 22.4473L323.038 22.6119C322.683 22.6395 322.426 22.6734 322.112 22.6882C321.939 22.7012 321.801 22.724 321.706 22.7555C321.612 22.7869 321.563 22.8262 321.563 22.8711C321.564 22.9401 321.47 22.9982 321.291 23.0398C321.113 23.0814 320.854 23.1052 320.541 23.1088C320.167 23.1103 319.953 23.1853 319.734 23.2119L320.686 23.6642C320.686 23.6642 320.213 23.6056 320.47 23.6853L320.503 23.6297L321.08 23.7429C321.496 23.8421 321.786 23.8662 322.032 23.7951C322.277 23.724 322.221 23.8186 322.339 23.7913C322.296 23.8637 322.029 23.9142 321.8 23.9575C321.535 23.9915 321.237 24.0165 320.909 24.0322C321.5 24.3502 321.528 24.3597 320.665 24.4439C319.802 24.5281 320.099 24.6546 319.377 24.6726C318.655 24.6906 319.476 24.9058 319.959 24.9478C320.318 24.9754 320.683 25.0183 321.031 25.0737C321.378 25.1291 321.699 25.1956 321.972 25.2687L321.827 25.5135C321.614 25.4932 321.401 25.4669 321.195 25.4353C320.496 25.3008 319.859 25.1742 319.237 25.2524L319.533 25.4384L317.36 25.3306C317.417 25.47 317.748 25.6288 318.284 25.7734C318.203 25.8529 318.154 25.9365 318.136 26.0238C318.099 26.085 317.885 26.0465 317.746 26.0531C317.248 26.0633 316.84 26.1048 316.556 26.1739C316.273 26.2429 316.124 26.3374 316.121 26.4491C316.065 26.5437 316.83 26.74 317.308 26.7335C318.503 26.7524 319.794 26.8251 321.112 26.9478C321.916 26.9638 322.03 26.7151 323.352 26.8849C323.379 26.9997 323.209 27.0927 322.87 27.1498C322.53 27.2068 322.039 27.2249 321.47 27.2012C321.794 27.4562 323.584 27.5227 323.664 27.7893C323.218 27.7705 322.741 27.7262 322.28 27.6608C321.82 27.5954 321.392 27.5111 321.038 27.4164C320.962 27.393 320.866 27.3715 320.759 27.3538C320.653 27.3361 320.539 27.3228 320.429 27.3151C320.319 27.3073 320.215 27.3055 320.128 27.3097C320.041 27.3139 319.974 27.324 319.932 27.3391C320.179 27.4355 320.452 27.5469 320.763 27.6511C321.074 27.7553 321.149 27.8004 321.374 27.8222C323.047 28.0295 323.842 28.4027 325.29 28.6477C325.669 28.6946 325.716 28.8437 325.387 28.8269C325.074 28.81 324.791 28.8122 324.569 28.8333C324.347 28.8543 324.195 28.8933 324.13 28.946C323.887 29.0074 323.585 29.0563 323.231 29.0914C324.715 29.4744 326.485 29.8128 328.375 30.0748C328.733 30.1266 329.106 30.1582 329.44 30.1649C330.494 30.1653 331.614 30.1957 332.775 30.2555C333.187 30.2718 333.567 30.2703 333.896 30.251C334.973 30.2053 335.829 30.3053 336.611 30.5873L337.905 31.0342C337.862 31.1065 337.645 31.1871 337.477 31.2978L338.488 31.5364L346.201 30.9868L347.75 31.519L349.97 31.4894C350.14 31.5048 350.311 31.5259 350.475 31.5519C350.924 31.7091 351.275 31.8601 351.762 32.01C352.25 32.1599 353.12 32.1781 353.727 32.3548C354.334 32.5315 354.942 32.5351 355.693 32.6401C355.763 32.7768 355.69 32.9 355.478 33.0017C355.409 33.1186 355.027 33.1907 354.962 33.302C354.969 33.4145 354.827 33.5099 354.549 33.5798C354.271 33.6496 353.865 33.6916 353.369 33.7019C351.979 33.9414 350.304 34.1119 348.392 34.2083C348.225 34.2153 348.085 34.2315 347.983 34.2559C347.882 34.2802 347.819 34.3122 347.8 34.3499C347.803 34.4591 347.675 34.5534 347.427 34.626C347.179 34.6986 346.816 34.7476 346.365 34.7694C346.245 34.7738 346.155 34.7875 346.105 34.8089C345.934 34.8226 345.809 34.8489 345.743 34.8852C345.677 34.9215 345.672 34.9667 345.728 35.0162C345.784 35.0657 345.899 35.118 346.062 35.168C346.225 35.218 346.431 35.264 346.66 35.3016C346.992 35.3621 347.331 35.4201 347.676 35.4752C347.656 35.5085 347.314 35.5139 347.364 35.544C347.499 35.64 347.53 35.7299 347.455 35.8067C347.38 35.8834 347.201 35.9449 346.932 35.9862L348.776 36.764C349.894 36.8717 350.992 37.0544 351.86 37.2774C351.861 37.3139 351.811 37.3445 351.715 37.3662C351.619 37.3878 351.48 37.3997 351.313 37.4007C350.863 37.4166 350.437 37.4476 349.953 37.4651C349.656 37.4783 349.41 37.5072 349.227 37.5502C349.045 37.5932 348.93 37.6494 348.889 37.7156L349.972 38.005C349.625 38.0755 349.368 38.1093 349.139 38.1526C349.268 38.2435 349.492 38.3376 349.791 38.4275C350.09 38.5174 350.458 38.6007 350.865 38.671C350.974 38.6855 351.085 38.696 351.192 38.7021C351.299 38.7082 351.4 38.7096 351.488 38.7063C352.326 38.6071 353.306 38.7823 354.259 38.948C355.211 39.1137 355.728 39.2136 356.431 39.3424L357.776 39.3598C358.117 39.4208 358.42 39.4925 358.663 39.5693C358.906 39.646 359.081 39.7256 359.175 39.8017C359.102 39.9241 358.464 39.857 358.084 39.8697C357.182 39.9458 355.996 39.9296 354.722 39.8236C354.407 39.7845 354.083 39.8161 353.776 39.8198C353.113 39.835 352.476 39.8598 351.868 39.8941C351.468 39.9259 351.093 39.9654 350.748 40.0121C350.655 40.1679 352.109 40.2882 351.284 40.3652C351.568 40.4004 351.674 40.4494 351.821 40.4316C352.756 40.5328 353.679 40.5828 354.48 40.5759C356.018 40.5544 357.764 40.6254 359.576 40.783C361.531 40.9463 363.407 41.0149 365.049 40.9831C365.674 40.9812 366.373 41.0147 367.092 41.0809C367.941 41.1726 368.784 41.2302 369.567 41.2501C369.826 41.2508 370.115 41.2664 370.41 41.2956C370.704 41.3249 370.997 41.3669 371.263 41.4183C371.24 41.4573 370.986 41.4856 371.043 41.5045C371.853 41.7959 372.181 42.0994 373.428 42.3971C374.28 42.5027 375.259 42.6239 375.816 42.4839C376.374 42.3439 376.174 42.2236 375.065 41.8653C375.306 41.8601 375.596 41.8769 375.884 41.9126C376.173 41.9483 376.441 42.0008 376.643 42.0608L377.603 42.3289L378.467 42.5853C378.392 42.7133 378.332 42.8134 378.27 42.9191C378.171 43.0314 378.279 43.1681 378.58 43.3099C378.762 43.3874 378.92 43.4649 379.053 43.5417C379.593 43.8488 379.75 44.1391 379.505 44.38C379.035 44.7263 378.382 45.045 377.551 45.3324C376.674 45.6119 376.194 45.9645 375.471 46.2691C375.102 46.4078 374.654 46.5322 374.132 46.6408C373.142 46.8824 372.057 47.1123 371.063 47.3595C370.07 47.6067 368.948 47.7843 367.844 47.988C366.201 48.2298 364.425 48.4386 362.526 48.6133C361.351 48.7664 360.144 48.9155 359.057 49.0914C357.773 49.2897 356.265 49.4321 354.57 49.5151C353.073 49.6144 351.735 49.7613 350.583 49.9529C350.462 49.9736 350.367 50 350.299 50.0312C350.092 50.2267 349.51 50.3644 348.644 50.4234C348.696 50.4806 348.764 50.5388 348.845 50.5976C348.966 50.6678 348.991 50.7335 348.917 50.7862C348.844 50.8388 348.675 50.876 348.433 50.893C347.74 50.9414 347.164 51.0236 346.73 51.1359C346.571 51.1641 346.473 51.2052 346.443 51.2556C346.413 51.3059 346.453 51.3642 346.559 51.4252C346.653 51.4881 346.66 51.5459 346.579 51.5912C346.498 51.6365 346.332 51.6672 346.103 51.6794C345.517 51.7388 344.888 51.7867 344.222 51.8226C342.806 51.9019 341.158 51.9009 339.378 51.8198C339.189 51.7964 338.998 51.8325 338.777 51.8051C337.519 51.7143 336.35 51.7002 335.412 51.7646C334.313 51.7897 333.164 51.7847 332.005 51.7964C330.33 51.7886 328.785 51.8363 327.413 51.9384C325.845 51.8398 324.964 52.0113 323.641 52.0146C322.419 52.0322 321.26 52.0745 320.177 52.141C318.43 52.2293 316.69 52.3064 314.969 52.4097C313.353 52.4589 311.866 52.553 310.532 52.6903C310.021 52.7524 309.096 52.6557 308.748 52.7858C308.399 52.9159 307.697 52.9005 307.129 52.9436L305.338 53.0502C305.03 53.0756 304.691 53.0917 304.327 53.0982C302.661 53.1069 301.507 53.2805 299.961 53.316L299.804 53.2964C297.059 53.5546 293.917 53.6963 290.472 53.7173C288.46 53.7965 286.259 53.7927 284.124 53.8508C283.615 53.9668 282.412 53.8238 281.773 53.9298C281.134 54.0358 280.091 53.9663 279.267 53.9838C278.443 54.0012 277.638 54.0448 276.758 54.0433C275.994 54.0438 275.348 54.0911 274.88 54.181C273.813 54.3295 272.511 54.4169 271.034 54.4391C269.079 54.4777 267.231 54.5653 265.243 54.5461C265.272 54.6544 265.15 54.7465 264.89 54.8129C264.63 54.8794 264.242 54.9179 263.765 54.9244C261.64 54.9657 259.712 55.0733 257.558 55.1052L256.982 55.1055L250.541 55.1676C248.805 55.1796 247.133 55.1994 245.363 55.2131C244.7 55.131 244.684 55.2723 244.225 55.2454C244.097 55.1758 243.946 55.1451 243.72 55.1828L243.671 55.2663L236.319 55.377C233.441 55.458 230.413 55.4822 227.262 55.4496C226.515 55.4578 225.817 55.4855 225.18 55.5322C224.59 55.5492 223.974 55.5567 223.337 55.5547C222.475 55.5337 221.633 55.5231 220.814 55.5229C218.66 55.5548 216.4 55.5376 214.042 55.5142C211.683 55.4909 209.897 55.5324 207.798 55.5292C206.376 55.5263 204.961 55.5123 203.49 55.4794C202.787 55.464 201.921 55.3807 201.194 55.3503C200.466 55.3199 200.229 55.3204 200.133 55.3682C199.816 55.5021 199.02 55.4155 198.384 55.4024C197.144 55.3802 196.967 55.3344 196.63 54.9881L198.153 54.8781C198.526 54.8426 198.995 54.8363 199.515 54.86C200.035 54.8836 200.589 54.9363 201.123 55.013C201.333 55.0459 201.552 55.0719 201.769 55.0895C201.985 55.107 202.194 55.1159 202.384 55.1154C203.92 55.0967 205.434 55.0573 206.91 55.0251L207.126 55.0041L207.14 54.6952C206.944 54.6649 206.742 54.6398 206.54 54.621L199.136 54.4205C197.436 54.3713 195.672 54.2603 194.005 54.2151C192.337 54.1698 191.439 54.1421 190.145 54.0953C189.599 54.0686 189.042 54.0336 188.479 53.9905C188.511 53.9607 188.53 53.9291 188.535 53.8959C188.564 53.8458 188.604 53.7791 188.365 53.7255C188.103 53.6499 187.754 53.5854 187.387 53.5448C187.042 53.5179 186.708 53.5027 186.397 53.4998C184.896 53.4739 183.18 53.3108 181.618 53.0452L181.072 53.2224C178.725 53.1229 176.343 53.0249 173.891 52.9303C173.401 52.9045 172.885 52.855 172.385 52.7855C171.848 52.719 171.354 52.5802 170.789 52.5043C170.231 52.4496 169.676 52.407 169.136 52.3772C169.282 52.3316 169.475 52.2951 169.709 52.2689C169.938 52.2598 170.106 52.2313 170.186 52.1876C170.267 52.1439 170.257 52.0873 170.158 52.0259C169.983 51.9207 169.906 51.8216 170.286 51.809C170.638 51.785 170.889 51.733 171.011 51.6592C171.133 51.5854 171.12 51.4928 170.974 51.3924C170.91 51.3338 170.864 51.2763 170.838 51.2204L170.68 51.2009C170.16 50.9931 169.12 50.918 168.374 50.7479C168.021 50.6986 167.657 50.6703 167.337 50.6673C166.511 50.6308 165.708 50.6148 164.854 50.5688C164.446 50.5476 164.019 50.509 163.599 50.4552C163 50.381 162.936 50.3731 162.588 50.1031C163.129 50.1078 163.558 50.0674 163.802 49.9889C164.046 49.9103 164.091 49.7983 163.928 49.6718C163.482 49.3956 163.011 49.1043 160.992 48.9081C161.65 48.8984 162.284 48.8792 162.89 48.8505C163.066 48.8443 163.198 48.824 163.268 48.7923C163.338 48.7606 163.343 48.7191 163.282 48.6732C163.221 48.6273 163.096 48.5792 162.926 48.5355C162.755 48.4917 162.546 48.4544 162.327 48.4284C161.261 48.2721 160.15 48.1676 159.117 48.1264C158.247 48.1082 157.461 48.1184 156.445 48.118L155.245 47.9694C155.265 47.936 155.089 47.8903 155.134 47.8719C155.438 47.7007 155.775 47.5333 156.121 47.3493C155.568 47.2499 155.089 47.1299 154.739 47.0031C154.388 46.8763 154.181 46.7477 154.14 46.6321C154.11 46.5973 154.118 46.5655 154.163 46.5391C154.208 46.5127 154.289 46.4922 154.4 46.4792C154.716 46.4569 154.96 46.4142 155.113 46.3544C155.266 46.2947 155.324 46.2195 155.282 46.1346L154.349 45.822C151.54 45.5989 148.782 45.4395 146.125 45.3468L143.727 45.2767C143.437 45.1931 143.527 45.1564 143.799 45.1543C144.072 45.1522 144.837 45.1754 145.372 45.1879C145.834 45.2043 146.244 45.1935 146.563 45.1566C146.882 45.1197 147.098 45.0579 147.191 44.9772L146.386 44.6207C146.426 44.5539 146.482 44.4594 146.918 44.4657C147.217 44.458 147.437 44.4243 147.543 44.3703C147.648 44.3162 147.634 44.2449 147.502 44.1677C147.482 44.1118 147.512 44.061 147.591 44.0175C148.237 44.0139 148.879 44.0158 149.465 43.9988C149.739 43.9932 149.969 43.9725 150.141 43.9382C150.314 43.9039 150.424 43.8568 150.464 43.8001C150.486 43.7447 150.434 43.6816 150.314 43.6159C150.194 43.5502 150.009 43.4837 149.774 43.4219C148.855 43.3453 148.015 43.3443 147.437 43.4191C147.231 43.4777 146.9 43.5098 146.488 43.511C146.076 43.5122 145.602 43.4825 145.129 43.4259C144.587 43.3606 144.046 43.3319 143.603 43.3449C143.16 43.358 142.845 43.412 142.714 43.4971C142.158 43.464 141.664 43.4388 141.178 43.4024C140.604 43.3564 140.061 43.3429 139.608 43.3632C138.884 43.3776 138.104 43.3692 137.285 43.3382C134.925 43.2609 132.561 43.1891 130.276 43.1569C129.671 43.1477 129.148 43.1725 128.55 43.1522C127.952 43.1319 127.479 43.1868 126.732 43.0763C126.589 43.0591 126.446 43.0481 126.313 43.044C126.18 43.04 126.061 43.0431 125.966 43.0531C124.653 43.1405 123.113 43.1529 121.437 43.0894C119.142 43.0739 116.762 43.03 114.464 43.02C113.79 43.0286 113.153 43.0516 112.559 43.0887C112.108 43.1111 111.635 43.1263 111.143 43.1342C110.766 43.1413 110.405 43.1205 110.469 43.2419C110.533 43.3632 109.968 43.2873 109.642 43.2649C108.524 43.206 107.38 43.1264 106.225 43.0268C105.087 42.9186 103.972 42.8556 102.946 42.8416C102.205 42.8335 101.442 42.8643 100.489 42.6986C100.526 42.6374 100.562 42.5762 100.769 42.5123C99.9926 42.3365 99.1065 42.1852 98.1842 42.071C97.2619 41.9567 96.3299 41.8828 95.4654 41.8554L94.2732 41.5226C93.9797 41.4836 93.68 41.4551 93.3925 41.439C93.1049 41.4229 92.8354 41.4194 92.6005 41.4289C92.4189 41.4337 92.1976 41.4214 91.9772 41.3941C91.7569 41.3668 91.5522 41.3264 91.4008 41.2803C91.1744 41.2217 90.8979 41.1712 90.6059 41.135C90.3139 41.0989 90.0193 41.0787 89.7592 41.077C88.94 41.0408 88.0657 40.9573 87.2255 40.8349C87.0075 40.7631 86.8709 40.689 86.8326 40.6217C86.7942 40.5543 86.8558 40.4966 87.0097 40.4558C87.2579 40.3837 87.3973 40.2918 87.4194 40.1857C87.4414 40.0797 87.3458 39.9616 87.1382 39.8387C87.032 39.7632 86.9964 39.6918 87.0338 39.6287C87.0712 39.5656 87.1808 39.5121 87.3559 39.4715C88.0094 39.2837 87.8345 39.1784 86.7654 38.8669C86.5917 38.8149 86.3823 38.7664 86.1506 38.7243C85.9188 38.6822 85.6698 38.6476 85.4191 38.6225C84.8311 38.5717 84.2512 38.5339 83.6899 38.5098C83.3742 38.4707 83.0504 38.5023 82.6867 38.4871C80.8679 38.4112 80.6016 38.2886 80.0126 38.0245L79.5833 37.834C78.7872 37.6797 77.9164 37.5515 77.0339 37.4587C76.1513 37.3659 75.2789 37.3109 74.4794 37.2974C74.1616 37.2964 73.7963 37.2701 73.4395 37.2224C72.2781 37.0766 71.1019 36.9757 69.9889 36.9264C69.2953 36.8987 68.5477 36.8268 67.8358 36.7196C67.1239 36.6124 66.478 36.4743 65.9757 36.3219C65.5245 36.1846 64.9341 36.0614 64.2869 35.9694C63.5292 35.8755 63.459 35.7653 63.8821 35.6804C64.3053 35.5954 65.0139 35.4861 65.6429 35.3968C65.8618 35.3665 65.9974 35.3171 66.0347 35.2542C66.0719 35.1914 66.0094 35.1174 65.8539 35.0407C65.7542 34.9095 65.7368 34.7849 65.8025 34.6701C65.8375 34.6224 65.8133 34.5676 65.7315 34.5096C65.6496 34.4516 65.512 34.3916 65.3279 34.3337C65.1439 34.2758 64.9176 34.2214 64.6644 34.174C64.4112 34.1267 64.1369 34.0875 63.8601 34.0593C62.692 33.9146 61.5555 33.7738 60.3643 33.6681C59.8651 33.6183 59.3665 33.5565 58.8805 33.4843C57.8858 33.3058 56.8217 33.1578 55.7499 33.0488C55.2412 33.0001 54.7439 32.9149 54.3656 32.8117C53.1723 32.5336 52.0727 32.2412 51.0868 31.9398C50.8492 31.8463 50.5383 31.7551 50.1736 31.6719C49.8088 31.5887 49.3982 31.5153 48.9674 31.4563C48.6201 31.4133 48.3374 31.3186 48.0697 31.2556C47.8753 31.1096 47.8544 30.9746 48.0094 30.8633C48.1643 30.7519 48.4898 30.6678 48.9554 30.6188C49.3969 30.56 49.8101 30.4917 50.1918 30.4195C50.6518 30.3612 51.1987 30.3261 51.8122 30.3157C52.5388 30.2843 53.076 30.1948 53.3539 30.0587C51.365 29.8124 49.4736 29.4587 47.7302 29.5414L46.4056 29.3176C46.4583 29.2286 46.5045 29.1507 46.5474 29.0784C46.8624 28.9467 46.9608 28.7807 46.8342 28.5943C46.7298 28.5042 46.7393 28.4222 46.8615 28.3565C46.9837 28.2909 47.2143 28.2441 47.5301 28.2207C49.4007 27.9806 51.5639 27.8185 53.3181 27.5461C53.8681 27.4949 54.5119 27.4717 55.2225 27.4774C55.91 27.461 55.8812 27.338 55.0901 27.1863C54.646 27.107 54.1934 27.031 53.734 26.9586C51.7079 26.9465 50.8825 27.3101 48.5704 27.2089L47.4987 26.7298C47.2089 26.7224 46.9276 26.7194 46.6567 26.721L42.7799 26.9157C42.457 26.9255 42.2056 26.9588 42.0543 27.0118C41.9031 27.0649 41.858 27.1355 41.9242 27.2158C41.9505 27.3141 41.8971 27.4041 41.7659 27.4829C41.6814 27.538 41.7355 27.6113 41.9163 27.6866C42.324 27.8566 41.801 27.8814 41.4707 27.9241C41.3862 27.9282 41.2889 27.9278 41.1842 27.9227C41.0796 27.9177 40.9698 27.9082 40.8611 27.8947C40.7525 27.8813 40.6472 27.8642 40.5513 27.8444C40.4554 27.8246 40.3709 27.8025 40.3026 27.7794C39.7206 27.6177 39.2117 27.4472 38.6396 27.2689C39.0458 27.0982 38.5679 26.8181 39.2016 26.6636C39.2725 26.6328 39.3009 26.5952 39.285 26.5532C39.2691 26.5112 39.2093 26.4656 39.1092 26.4193C38.8511 26.2997 38.7283 26.1832 38.7529 26.0814C38.7775 25.9796 38.9488 25.8961 39.2495 25.8395L39.2858 25.7783C38.4927 25.5726 38.7029 25.3896 38.3914 25.1718L37.6285 25.0296C35.7305 24.687 35.7272 24.6926 34.0931 24.7052C33.7637 24.5748 34.1822 24.555 34.496 24.5401L37.1243 24.3938C38.8427 24.2961 40.611 24.2285 42.5306 24.1915C44.4502 24.1545 46.5903 24.0314 48.5744 23.9427C48.6748 23.9359 48.7515 23.9223 48.7982 23.9031C48.8449 23.884 48.8603 23.8598 48.843 23.8327C48.7641 23.8033 48.6609 23.775 48.5409 23.7498C48.4209 23.7246 48.2873 23.7032 48.1498 23.6871C47.5184 23.6089 46.8706 23.5585 46.1977 23.4931L44.9433 23.3795L44.5575 23.2302C44.3063 23.1394 44.1347 23.0286 43.8006 22.9633C43.5253 22.9146 43.2265 22.8777 42.9352 22.8563C42.6438 22.8349 42.3708 22.8299 42.1444 22.8418C41.5168 22.8716 40.949 22.9147 40.3497 22.9539C39.7504 22.9932 39.4201 23.0359 38.9003 23.0551C37.8444 23.0639 36.8239 23.087 35.8433 23.1244C35.0174 23.2129 34.2534 23.3177 33.5563 23.4383C33.1214 23.486 32.7147 23.5431 31.9721 23.481C31.6198 23.4247 31.3159 23.3507 31.1143 23.2721C30.9128 23.1936 30.8265 23.1156 30.8709 23.052C30.9107 23.0021 31.0235 22.9626 31.1986 22.9373C31.3737 22.912 31.6053 22.9016 31.8716 22.9072C32.617 22.898 33.3063 22.8671 33.9256 22.8152C34.7876 22.7211 35.8368 22.6805 37.0122 22.6958C37.4109 22.7094 37.6781 22.6589 38.0267 22.6423C38.3754 22.6258 38.6708 22.5848 39.0595 22.615C40.2672 22.6929 40.8463 22.5735 41.57 22.4959C41.815 22.4615 41.9667 22.4059 42.0086 22.3353C42.0505 22.2646 41.9809 22.1816 41.8074 22.0954C41.4734 21.9236 41.0647 21.7509 40.5879 21.58C40.3425 21.496 40.0281 21.4162 39.6694 21.3469C39.3106 21.2776 38.9173 21.2207 38.5202 21.1806C38.2826 21.0755 38.1558 20.972 38.1514 20.8797C38.1469 20.7874 38.2649 20.7091 38.4947 20.6519C39.0804 20.5214 39.5996 20.3886 40.9119 20.4616C41.5288 20.4895 42.1095 20.4948 42.6307 20.4774C43.7868 20.4536 45.1204 20.5057 46.5058 20.6289C46.8642 20.6604 47.2165 20.682 47.5523 20.6928C49.9474 20.7685 52.2293 20.8063 54.5178 20.8329C55.7302 20.8457 56.9525 20.8418 58.2181 20.8791C61.1861 20.9601 63.8879 20.9185 66.7527 20.9448C68.253 20.9584 69.596 20.9039 70.7111 20.7841C70.9283 20.744 71.1148 20.6972 71.2684 20.6442C70.5295 20.5051 69.7178 20.3949 68.9112 20.3243C68.1045 20.2537 67.3299 20.2249 66.6616 20.2408C66.2942 20.2797 65.8193 20.2869 65.2899 20.2614C64.7605 20.2359 64.1975 20.1788 63.6634 20.0964L65.216 20.0498C66.2456 20.028 67.3 20.0213 68.3013 19.99C69.892 19.9362 71.3663 19.8501 73.0136 19.8152C74.3435 19.7831 75.5336 19.7012 76.5465 19.572C77.2782 19.4777 78.114 19.4108 79.0367 19.3728C79.6926 19.3525 79.6926 19.3525 80.1119 19.1596C79.7792 19.0348 79.349 19.0173 78.9438 19.0149C76.5144 18.9364 74.2024 18.9226 72.055 18.9739C70.9716 18.9784 70.0104 19.0313 69.2176 19.1301C69.0235 19.1717 68.5268 19.152 68.1282 19.1385C66.8786 19.1179 65.6842 19.1239 64.5595 19.1563C63.0044 19.2104 61.2725 19.1976 59.431 19.1183C59.0819 19.0214 59.4838 19.0293 59.5036 18.9959C60.9298 18.9337 62.3279 18.862 63.7824 18.8093C64.18 18.7905 64.605 18.7812 65.0527 18.7815C66.7239 18.8142 68.1166 18.7236 69.0356 18.5223C69.0817 18.4444 69.6863 18.4536 69.9534 18.4031C70.0849 18.3593 70.1724 18.3079 70.2135 18.2501C69.8242 18.1064 69.3842 18.1056 69.0454 18.1055C68.0623 18.1215 67.1166 18.1519 66.2127 18.1966C65.3725 18.239 64.4424 18.2504 63.4477 18.2303C62.7136 18.2111 62.086 18.2408 61.3453 18.2327C60.9435 18.2156 60.5276 18.1881 60.1061 18.1509C60.5754 18.0507 61.2134 17.9891 61.9753 17.9703C62.5529 17.9105 63.2752 17.8925 63.3676 17.7367C63.0947 17.6253 62.7908 17.6234 62.5467 17.635C62.0387 17.6346 61.5479 17.6416 61.0771 17.656C60.0787 17.6877 58.9978 17.6882 57.857 17.6573C57.2563 17.6458 56.6863 17.6493 56.1565 17.6677C54.9559 17.6922 53.8053 17.7468 52.706 17.7718C50.4542 17.7975 48.4004 17.8895 46.2367 17.9381C45.7552 17.9501 45.3235 17.9922 44.6888 17.9195C44.0541 17.8469 44.0259 17.8374 43.951 17.7923C43.7734 17.7171 43.7195 17.6441 43.8007 17.5886C43.9265 17.5367 44.1718 17.5078 44.4927 17.5071C46.4269 17.4246 48.2615 17.3087 49.9849 17.1601C50.7433 17.1304 51.4079 17.0697 51.9553 16.9802C52.3895 16.9185 52.9045 16.8777 53.4843 16.859C54.3274 16.8144 55.2064 16.7817 56.1177 16.7611C56.5418 16.7501 56.9023 16.717 57.1781 16.664C57.454 16.611 57.6395 16.5391 57.7239 16.4524L56.6067 16.1648C56.4312 16.1514 56.2571 16.1398 56.0851 16.13L46.8127 16.3372L45.8944 16.343C44.8879 16.3258 44.6419 16.2834 43.6873 15.9502C45.866 15.8718 47.5788 15.6433 48.6549 15.2874C48.3963 15.2491 48.1311 15.2163 47.8656 15.1897C46.1244 15.1055 44.4785 15.0831 42.9911 15.1234C42.1077 15.1275 41.1993 15.1165 40.2875 15.1111C40.5542 14.947 41.5757 14.9959 42.2415 14.9589C43.8322 14.901 45.239 14.7815 46.4166 14.6041C46.8226 14.535 47.3306 14.4907 47.9172 14.4735C48.5044 14.4675 48.9948 14.4257 49.3458 14.3515C49.6969 14.2774 49.8979 14.1732 49.9315 14.0481C49.9868 13.9348 50.106 13.8295 50.2872 13.7338C49.9665 13.5981 49.4573 13.468 48.8551 13.3682C48.253 13.2683 47.5992 13.2055 47.0166 13.1914C45.7728 13.1355 44.4828 13.044 43.1792 12.9192C42.5299 12.8562 41.8932 12.8201 41.3105 12.8131C40.7966 12.8078 40.2125 12.7623 39.6472 12.6837C39.082 12.6051 38.5667 12.4976 38.1798 12.3776C37.6577 12.2294 37.1705 12.0794 36.6832 11.9295C36.196 11.7796 35.6306 11.5901 35.0618 11.4062C34.5604 11.3775 34.072 11.359 33.6035 11.351C33.239 11.3577 32.8136 11.3377 32.3776 11.2932C31.9416 11.2487 31.5132 11.1817 31.1429 11.1C31.3601 11.0194 31.6056 10.9483 31.8643 10.8549C31.5092 10.7316 31.2518 10.6059 31.1077 10.4853C30.9635 10.3648 30.9357 10.252 31.0259 10.1539C31.0787 10.0649 30.6927 9.91554 30.5593 9.7975C30.3876 9.69574 30.3554 9.60078 30.4668 9.52506C30.5782 9.44934 30.8281 9.3964 31.1836 9.37318C31.6246 9.33033 31.9835 9.2658 32.2456 9.18223C32.3323 9.16054 32.3765 9.13083 32.374 9.09582C32.3715 9.06081 32.3225 9.02162 32.2315 8.98183C32.1405 8.94205 32.0103 8.90293 31.8529 8.86806C31.6955 8.83319 31.5159 8.80368 31.3305 8.78224C30.7626 8.72144 30.1987 8.68203 29.671 8.66627C28.7619 8.63729 27.8916 8.61909 27.0601 8.61166C26.1405 8.60048 25.1175 8.53146 24.0949 8.41162C23.1794 8.29823 22.3585 8.19656 21.9109 7.97987C21.4632 7.76319 20.7474 7.77009 20.1971 7.61235C20.5062 7.47015 21.0558 7.37136 21.7901 7.32593C22.2707 7.30971 22.6719 7.26715 22.9679 7.20096C23.2639 7.13478 23.4482 7.04644 23.509 6.94161L21.838 6.50176C20.5036 6.29468 19.7653 6.45406 18.3234 6.37104L19.8091 6.20867C19.8389 6.19262 19.8501 6.17377 19.8421 6.15303C19.6978 5.82462 19.4683 5.7544 17.9497 5.57228L17.0973 5.46671L15.7482 5.34143C15.5322 5.27412 15.3828 5.20394 15.3149 5.13789C15.247 5.07184 15.263 5.01224 15.3613 4.96506C15.559 4.8857 15.6191 4.7843 15.5361 4.67018C15.4052 4.59459 15.3945 4.52491 15.5056 4.47322C15.6167 4.42152 15.8427 4.39109 16.1444 4.38721C16.3851 4.38119 16.403 4.29383 16.534 4.24436C16.6641 4.17618 16.8869 4.12386 17.1871 4.09096C17.4873 4.05806 17.8578 4.04535 18.2735 4.05371C19.4992 4.06054 20.6507 4.03495 21.7075 3.97738L21.5181 3.95392C22.6195 4.00446 23.6493 4.01058 24.5572 3.97201C25.4671 3.92346 26.6347 3.9546 27.6011 3.925C28.3878 3.93179 28.9868 3.86459 29.2709 3.73766C29.5461 3.61647 30.5459 3.64475 31.3116 3.66792C31.7652 3.68291 32.2035 3.68926 32.622 3.6869C33.1837 3.65947 33.886 3.68532 34.6119 3.76016C34.8296 3.78316 35.0442 3.79533 35.2348 3.7955C37.08 3.82696 38.9218 3.86397 40.742 3.88039C41.1621 3.87094 41.6548 3.89259 42.1621 3.94281C42.3754 3.96461 42.5829 3.97365 42.7568 3.96869C45.6329 3.91881 48.8784 4.04607 51.698 3.97725C52.0397 3.96099 52.4181 3.95761 52.8223 3.9672C53.7306 4.00763 54.5194 3.98161 55.0689 3.8931C55.3653 3.84602 55.7454 3.82008 56.1849 3.81692C56.6243 3.81377 57.1135 3.83348 57.6213 3.87479C58.4662 3.92949 59.2471 3.93542 59.8815 3.89196C61.1185 3.85181 62.4195 3.8353 63.774 3.84256C64.189 3.84958 64.5539 3.83398 64.8402 3.79696C65.1266 3.75993 65.3268 3.70248 65.4254 3.62905C65.0927 3.50424 64.729 3.48906 64.3836 3.50003C63.045 3.47159 61.7096 3.43758 60.396 3.42418C59.2201 3.38589 58.0919 3.37419 57.0279 3.38924C56.4996 3.40622 55.8404 3.36751 55.1941 3.28155C54.402 3.17269 53.5861 3.11861 52.9116 3.13024C52.4114 3.13313 51.8835 3.12375 51.3354 3.10225C50.9847 3.07631 50.6251 3.03178 50.2937 2.97322C50.1621 2.94779 50.019 2.9264 49.8734 2.91043C49.7278 2.89446 49.583 2.88427 49.4481 2.88049C49.3132 2.87671 49.1912 2.87942 49.09 2.88848C48.9888 2.89753 48.9106 2.91271 48.8603 2.93305C48.3529 3.10311 47.2183 3.01633 46.2467 2.99752C44.7906 2.70969 43.707 2.88005 42.3462 2.71748C42.2386 2.7067 42.1325 2.70017 42.0346 2.69831C41.9367 2.69645 41.8489 2.69928 41.7765 2.70664C39.1431 2.80449 36.0738 2.72294 33.3089 2.75673C33.0039 2.76167 32.65 2.74474 32.2873 2.70785C29.9171 2.46371 27.6381 2.39439 25.8961 2.51347C25.6841 2.52419 25.443 2.52465 25.1837 2.51482C23.9926 2.41779 22.8537 2.3791 21.8618 2.40199C20.3074 2.3946 18.8128 2.40059 17.2334 2.37816C16.1446 2.34625 15.1895 2.38034 14.4637 2.47705C14.4406 2.516 13.9571 2.47403 13.5868 2.46997C13.3738 2.37192 13.1891 2.28337 12.9695 2.19645C12.7733 2.08892 12.4792 1.9801 12.1074 1.87739C11.7356 1.77467 11.2948 1.68046 10.8147 1.60111C9.99392 1.49945 9.91183 1.35193 10.4862 1.29765C11.9666 1.11809 13.8282 1.0446 15.934 1.08257C17.6944 1.0856 19.4863 1.09255 21.2717 1.11063C22.313 1.12613 23.4108 1.16057 24.4238 1.1666C24.7657 1.17985 25.1168 1.19937 25.4736 1.22496C25.9115 1.26206 26.3366 1.28228 26.7261 1.28453C27.9767 1.25328 29.3724 1.2805 30.8467 1.36489C31.3867 1.38329 31.9051 1.38949 32.3945 1.3834C33.5521 1.3605 34.8071 1.37735 36.1262 1.43353C36.9461 1.46521 37.7411 1.48177 38.503 1.48305C38.772 1.48651 38.9911 1.4599 39.2503 1.48005C41.5313 1.6909 43.1465 1.5386 45.1995 1.61968C46.1973 1.64229 47.1505 1.64235 48.0459 1.61988C49.7932 1.62096 51.5893 1.64408 53.4269 1.68913C55.8568 1.76315 58.1085 1.73747 60.4286 1.76803C60.8867 1.77445 61.329 1.77336 61.7522 1.76475C63.8112 1.70787 66.0476 1.71993 68.4068 1.80064C68.9425 1.8123 69.4236 1.79804 69.8201 1.75877C70.2166 1.7195 70.5198 1.65605 70.7108 1.57241C70.7916 1.515 70.7393 1.44044 70.5638 1.3631C70.2726 1.26433 69.9438 1.16756 69.5828 1.07438L56.4502 0.761704C55.8987 0.745377 55.3608 0.736586 54.8393 0.735372C53.3055 0.732654 51.7246 0.70833 50.1043 0.66252C48.5032 0.61949 46.9737 0.627128 45.4226 0.614173C44.9657 0.609833 44.4967 0.599593 44.0176 0.583483C40.7788 0.45598 37.6207 0.378104 34.5655 0.350411C33.2801 0.346481 31.8915 0.287965 30.5811 0.268999C29.2707 0.250031 27.4788 0.243088 25.9244 0.235695L21.1117 0.23683C20.1651 0.233057 19.2435 0.244317 18.3251 0.250017C17.2107 -0.156747 16.8267 -0.252088 15.3396 -0.430296C14.8308 -0.496033 14.3133 -0.535262 13.8478 -0.543391C12.3716 -0.511236 10.5193 -0.64509 9.11943 -0.627369C8.27472 -0.63611 7.55794 -0.590923 7.04248 -0.496432C6.59502 -0.422275 6.08335 -0.363596 5.51536 -0.321282C3.95944 -0.669258 3.82232 -0.895258 4.99273 -0.983205C5.30983 -1.00365 5.74662 -0.997326 5.9756 -1.04063C6.10699 -1.067 6.28648 -1.08208 6.49977 -1.08469C6.71306 -1.0873 6.95424 -1.07736 7.20441 -1.05565C7.99395 -0.998706 8.73398 -0.985313 9.35024 -1.01682C9.93021 -1.05852 10.6411 -1.05685 11.4145 -1.01198C11.9827 -0.941601 12.4822 -1.04098 12.9736 -1.06969C13.4651 -1.09841 13.8684 -1.14998 14.6359 -1.07283C14.7765 -1.05747 14.916 -1.04825 15.0439 -1.04587C15.1717 -1.0435 15.2844 -1.04804 15.3734 -1.05914C16.1978 -1.10882 17.1815 -1.1036 18.2448 -1.0439C19.8755 -0.985151 21.4056 -0.982949 22.7818 -1.03737C23.6057 -1.08498 24.3081 -1.16942 24.8616 -1.28739C25.0125 -1.32685 25.2365 -1.35051 25.5123 -1.3561C26.897 -1.33149 28.4005 -1.23885 29.9259 -1.08417C30.5006 -1.02219 31.0745 -0.97316 31.6354 -0.938133C32.7883 -0.860321 33.9033 -0.816719 34.9474 -0.808616C36.4647 -0.807332 38.0444 -0.777394 39.6725 -0.719072C40.6773 -0.686599 41.6454 -0.674614 42.5655 -0.683246C43.5112 -0.687315 44.5209 -0.662545 45.5718 -0.60951C46.6168 -0.566293 47.5377 -0.591193 48.2236 -0.6812C48.4494 -0.729701 48.6313 -0.787295 48.7659 -0.852908C47.2358 -1.06641 45.6533 -1.17492 44.3371 -1.15657C43.8372 -1.17072 43.422 -1.15644 42.8952 -1.2396L42.8788 -1.21178C42.7739 -1.19373 42.6158 -1.18948 42.4344 -1.19982C42.2531 -1.21017 42.0612 -1.23439 41.8954 -1.26788C41.9581 -1.37359 42.0174 -1.47373 42.0603 -1.54606C43.0631 -1.5333 44.0369 -1.53433 44.9765 -1.54917C45.7686 -1.57051 46.8438 -1.38359 47.5294 -1.45395C48.8666 -1.36596 49.718 -1.48745 50.9172 -1.45239C52.1164 -1.41734 53.4371 -1.30153 54.6363 -1.26648C55.6827 -1.24724 56.6987 -1.24306 57.6787 -1.25395C58.017 -1.26924 58.4069 -1.26566 58.8246 -1.24341C59.4118 -1.20156 59.958 -1.19454 60.4005 -1.22318C60.843 -1.25181 61.1639 -1.31494 61.3266 -1.40532C61.1734 -1.48998 60.9671 -1.59914 60.7291 -1.71222C61.1669 -1.80514 61.8317 -1.84426 62.6251 -1.82377L63.7461 -1.82826C64.0431 -1.82581 64.2702 -1.85093 64.3803 -1.89842C64.4905 -1.94592 64.4753 -2.01215 64.3379 -2.08343C62.2123 -2.44224 62.134 -2.48179 60.574 -2.251L58.5026 -2.35824L58.5375 -2.35989ZM86.5544 -1.37425L86.3965 -1.3938L86.5544 -1.37425ZM344.687 36.8011L344.651 36.8622L344.69 36.7955L345.038 36.8385L345.061 36.7995L344.687 36.8011ZM294.267 9.97707C293.776 9.9103 293.28 9.84892 292.783 9.79329C292.653 9.78467 292.531 9.78272 292.428 9.78761C292.324 9.79251 292.243 9.80409 292.19 9.8214C292.151 9.88816 292.428 9.93448 292.681 9.96576C292.999 10.0079 293.325 10.0346 293.623 10.0433C293.922 10.0519 294.183 10.0421 294.38 10.015L294.665 9.9906L294.267 9.97707ZM41.4467 26.249C41.7699 26.2602 42.0764 26.262 42.3585 26.2544C43.6105 26.2004 44.8091 26.1219 46.0926 26.0719C47.712 25.9448 49.5729 25.8931 51.6054 25.9186C52.3995 25.9311 53.0704 25.8899 53.5397 25.7998C53.8207 25.7515 54.1833 25.7233 54.6055 25.7169L59.9788 25.5702C60.311 25.5397 60.5981 25.4971 60.8336 25.4431C60.36 25.3845 60.0443 25.3454 59.8549 25.3219C59.4619 25.3153 59.1241 25.3332 58.8753 25.3738C58.6081 25.4426 58.1565 25.4698 57.6101 25.45C57.0586 25.4337 56.5207 25.4249 55.9992 25.4237C55.0144 25.4271 54.023 25.4417 53.0349 25.4507C52.6505 25.6419 51.5158 25.5552 50.5442 25.5363L49.7936 25.5449C47.3401 25.6441 44.9964 25.7805 42.774 25.9535C42.3445 25.9828 41.9744 26.0295 41.6753 26.0921C41.5626 26.141 41.5264 26.202 41.5697 26.2702L41.4119 26.2506L41.4467 26.249ZM151.011 44.5366C151.606 44.5496 152.226 44.5764 152.861 44.6164C153.35 44.6574 153.828 44.6822 154.275 44.69C156.777 44.7329 159.385 44.8319 162.063 44.9857C162.413 45.009 162.749 45.0205 163.059 45.0196L165.251 44.9805C165.942 44.9586 165.955 44.9363 165.452 44.6411C165.035 44.5839 164.613 44.5316 164.19 44.4847C163.937 44.4535 163.527 44.4026 163.431 44.4505C162.845 44.581 161.777 44.4964 160.878 44.4688C158.277 44.3974 155.595 44.2922 152.969 44.2058C152.414 44.1847 151.876 44.174 151.361 44.1739C151.042 44.1695 150.75 44.1778 150.499 44.1985C150.426 44.2007 150.365 44.2068 150.319 44.2167C150.274 44.2265 150.245 44.2397 150.236 44.2555C150.227 44.2713 150.237 44.2893 150.265 44.3082C150.293 44.3272 150.339 44.3467 150.4 44.3654C150.615 44.4312 150.864 44.4941 151.137 44.5522L151.011 44.5366ZM170.064 1.69484L172.626 1.65985C172.934 1.65609 173.194 1.6167 173.523 1.63355C175.277 1.68694 176.902 1.67207 178.327 1.58957C178.813 1.5559 179.38 1.54917 179.999 1.56974C181.895 1.63071 183.683 1.63322 185.315 1.57719C186.37 1.56595 187.358 1.52819 188.263 1.46447C188.332 1.44967 188.376 1.42959 188.39 1.40559C188.404 1.38159 188.389 1.35423 188.345 1.32538C188.334 1.30715 188.303 1.28754 188.254 1.26791C188.206 1.24828 188.141 1.22907 188.064 1.21163C187.988 1.1942 187.901 1.17894 187.81 1.1669C187.72 1.15486 187.627 1.14633 187.539 1.14191C186.395 1.05565 185.31 1.02561 184.371 1.0542C183.501 1.08842 182.564 1.09843 181.575 1.08408C180.628 1.08031 179.986 1.19187 178.817 1.10674C178.322 1.07871 177.886 1.08794 177.581 1.13288C176.969 1.20738 176.114 1.21152 175.168 1.14458C174.603 1.1107 174.062 1.09617 173.567 1.10154C172.367 1.12603 171.219 1.17503 170.107 1.22238C169.756 1.23334 169.381 1.23485 168.986 1.22688L163.415 1.13417C162.077 1.10573 160.741 1.07172 159.428 1.05832C158.353 1.02922 157.354 1.03833 156.464 1.08534C155.515 1.13475 154.48 1.15481 153.378 1.14514C151.668 1.17218 149.967 1.18252 148.106 1.17889C146.918 1.18112 145.703 1.17389 144.462 1.15162C143.834 1.12295 143.302 1.1463 142.966 1.21716C142.762 1.2755 142.282 1.22797 141.883 1.21443C139.757 1.08394 137.763 1.05302 136.041 1.12383C135.821 1.13536 135.579 1.13954 135.322 1.13629C133.662 1.13385 131.944 1.11804 130.351 1.11786C129.932 1.12336 129.537 1.13846 129.172 1.16296C129.211 1.20293 129.323 1.24625 129.483 1.28393C129.644 1.32162 129.841 1.35078 130.035 1.36537C131.541 1.47703 132.996 1.53602 134.337 1.53986C136.57 1.52563 138.908 1.55761 141.329 1.63546C143.207 1.71393 144.919 1.69741 146.339 1.58712C147.448 1.50482 148.892 1.53578 150.421 1.67469C151.076 1.74103 151.711 1.76756 152.24 1.75065C152.749 1.72847 153.334 1.73385 153.959 1.76647C155.277 1.82851 156.545 1.85729 157.737 1.85224C158.903 1.82941 159.991 1.76702 161.188 1.74809C162.385 1.72916 164.209 1.74001 165.685 1.70785C167.161 1.6757 168.621 1.67136 170.064 1.69484ZM63.8917 -1.5594C64.027 -1.38738 64.5058 -1.28031 65.0208 -1.23444C66.7964 -1.03076 68.5518 -0.944089 69.9922 -0.988967C70.7704 -1.05157 71.8077 -1.02747 72.9004 -0.92141C74.1728 -0.811159 75.362 -0.792875 76.2585 -0.86978C76.4782 -0.883218 76.6464 -0.911626 76.7481 -0.952475C76.7679 -0.985856 76.8042 -1.04705 76.8108 -1.05818C76.7165 -1.0864 76.601 -1.11255 76.4731 -1.1346C76.3452 -1.15666 76.2082 -1.17404 76.0729 -1.1854L70.1915 -1.38232L69.1666 -1.42565C67.2946 -1.53918 65.5108 -1.5844 63.8917 -1.5594ZM75.4603 1.16334C76.3783 1.44424 76.3815 1.43867 76.8517 1.50288C79.1204 1.7696 81.3875 1.91359 83.3834 1.9177C83.8269 1.91688 84.2034 1.88977 84.4808 1.83863C84.6236 1.8317 84.7144 1.80968 84.7336 1.77737C84.7527 1.74506 84.6986 1.70508 84.583 1.66616L83.8531 1.46826C82.5275 1.38259 81.221 1.31452 79.9413 1.26445C78.4514 1.20533 77.1311 1.20305 75.5865 1.17897L75.4603 1.16334ZM150.901 43.2927C151.756 43.6793 151.759 43.6738 153.191 43.7735C154.189 43.8442 155.157 43.8856 156.066 43.8967C157.177 43.9089 158.317 43.9305 159.424 43.9483C159.695 43.9606 159.924 43.9504 160.068 43.9196C160.211 43.8888 160.259 43.8397 160.201 43.7817C160.056 43.7188 159.828 43.6579 159.556 43.609C159.283 43.5601 158.982 43.526 158.7 43.5122L158.096 43.5031C157.361 43.4838 156.599 43.4551 155.89 43.4508C155.43 43.4669 154.897 43.4545 154.332 43.4146C153.768 43.3748 153.188 43.3086 152.637 43.2212L150.901 43.2927ZM80.0276 -1.05391C80.2559 -0.986962 80.5142 -0.922837 80.7956 -0.863245C81.8849 -0.698072 83.0379 -0.604261 84.0284 -0.600201C84.4968 -0.58997 84.9251 -0.626502 85.4019 -0.573414C86.2572 -0.502475 87.086 -0.464687 87.8437 -0.462095C87.8437 -0.462095 88.0562 -0.477585 88.1259 -0.480893L88.271 -0.725689C87.9123 -0.782398 87.5383 -0.828727 87.166 -0.862543C85.9169 -0.927671 84.6895 -0.972197 83.4653 -1.02229C82.2412 -1.07238 81.8143 -1.09539 81.0138 -1.1169C80.6566 -1.10508 80.3263 -1.08398 80.0276 -1.05391ZM52.9773 29.379L54.6119 29.8801C55.1409 29.9236 55.635 29.9315 56.0192 29.9026C56.4034 29.8736 56.6565 29.8094 56.7401 29.7197C56.8748 29.6777 56.8883 29.6155 56.7777 29.5462C56.6672 29.4768 56.4413 29.4057 56.1474 29.3477C55.8644 29.2789 55.5415 29.2173 55.1985 29.1666C54.8555 29.1159 54.4997 29.0772 54.1533 29.0529L52.9773 29.379ZM66.5874 26.8843C65.5182 26.7994 64.4957 26.7647 63.5977 26.7828C63.032 26.8325 62.2655 26.8166 61.4553 26.7384C59.9819 26.5825 58.5616 26.5394 57.494 26.6181C57.494 26.6181 57.4544 26.6848 57.2735 26.7042C57.0925 26.7236 57.8102 26.7707 57.968 26.7902C59.1257 26.8381 60.29 26.8748 61.2965 26.8919C61.9213 26.8912 62.5823 26.907 63.2679 26.939C64.2113 26.9885 65.106 27.0045 65.917 26.9864C65.917 26.9864 66.2307 26.9716 66.5841 26.8899L66.5874 26.8843ZM180.768 0.787086C180.258 0.692724 179.704 0.616032 179.148 0.562766C178.593 0.509502 178.051 0.481051 177.562 0.479535C177.187 0.474612 176.884 0.499526 176.701 0.55034C176.517 0.601152 176.464 0.674966 176.548 0.760107C176.927 0.807027 177.432 0.869587 177.716 0.904777C178.701 0.901333 179.541 0.856087 180.768 0.787086ZM276.362 8.73896C275.953 8.663 275.501 8.60492 275.06 8.57136C274.618 8.5378 274.204 8.53011 273.866 8.54916C273.691 8.55743 273.81 8.64374 273.78 8.69382C273.761 8.70517 273.761 8.71929 273.781 8.7347C273.8 8.75011 273.839 8.76624 273.892 8.7814C273.946 8.79656 274.012 8.81019 274.084 8.82086C274.156 8.83154 274.231 8.83887 274.302 8.84208C274.746 8.87481 275.166 8.88455 275.523 8.87044C275.881 8.85632 276.164 8.8188 276.349 8.76122L276.362 8.73896ZM282.767 9.82486C282.704 9.78003 282.569 9.73332 282.387 9.69327C282.206 9.65322 281.989 9.62252 281.778 9.60682C281.405 9.60471 281.066 9.61714 280.774 9.64364C280.457 9.66408 280.685 9.79386 281.114 9.87086C281.295 9.90176 281.489 9.92587 281.68 9.94126C281.871 9.95665 282.054 9.9629 282.214 9.95952C282.374 9.95613 282.506 9.9432 282.601 9.92176C282.696 9.90031 282.751 9.87095 282.761 9.83599L282.767 9.82486ZM96.6548 -0.577147C95.6992 -0.737304 94.9637 -0.697012 94.1547 -0.761383C93.3457 -0.825751 93.1463 -0.832525 93.2547 -0.729521C93.3631 -0.626518 93.9177 -0.647407 94.265 -0.604396C94.7342 -0.547325 95.2062 -0.514554 95.6283 -0.50974C96.0503 -0.504927 96.4058 -0.528267 96.6548 -0.577147ZM295.78 26.5216C295.274 26.4857 294.778 26.4603 294.3 26.4458C294.237 26.4607 294.198 26.4802 294.184 26.5031C294.17 26.526 294.183 26.5519 294.221 26.5793C294.221 26.5793 294.545 26.6613 294.734 26.6847C295.432 26.7652 295.467 26.65 295.78 26.5216ZM367.318 41.4432C367.66 41.5514 367.82 41.6249 368.094 41.6768C368.22 41.6948 368.35 41.7079 368.475 41.7151C368.6 41.7222 368.716 41.7233 368.815 41.7183C368.936 41.6871 368.964 41.6395 368.894 41.5848C368.894 41.5848 368.545 41.4878 368.412 41.4833C368.033 41.4604 367.666 41.4469 367.318 41.4432ZM80.3894 -1.49283C79.6632 -1.58276 78.9686 -1.66879 78.4659 -1.56384C79.6189 -1.4509 79.619 -1.45089 80.3894 -1.49283ZM92.1498 -0.466244C91.4166 -0.658576 90.9864 -0.67603 90.6344 -0.653931C90.5596 -0.648366 90.5101 -0.63596 90.4934 -0.618597C90.4767 -0.601236 90.4937 -0.579861 90.5418 -0.557705C90.59 -0.535549 90.6666 -0.51382 90.7602 -0.495801C90.8537 -0.477783 90.9592 -0.464458 91.0604 -0.457843C91.4428 -0.452306 91.8075 -0.455117 92.1498 -0.466244ZM129.886 -0.384915C129.903 -0.412733 129.922 -0.446114 129.733 -0.469574C129.683 -0.481484 129.625 -0.491725 129.564 -0.499275C129.503 -0.506825 129.442 -0.511412 129.386 -0.51258C129.386 -0.51258 129.366 -0.479197 129.353 -0.456943L129.886 -0.384915ZM156.091 45.7988L155.669 45.8242L155.859 45.8477L156.359 45.8618L156.091 45.7988ZM304.577 9.39079C304.419 9.37124 304.261 9.35169 304.238 9.39064C304.205 9.39666 304.184 9.40537 304.178 9.41602C304.172 9.42666 304.18 9.43894 304.202 9.45183C304.202 9.45183 304.423 9.47921 304.518 9.49094L304.577 9.39079ZM279.993 9.70227C279.89 9.70004 279.796 9.70265 279.718 9.70994L279.698 9.74332L280.014 9.78242L279.993 9.70227ZM65.7536 17.656C65.6317 17.6357 65.5025 17.6197 65.3748 17.6091L65.2169 17.5895C65.2169 17.5895 65.3865 17.6463 65.4812 17.6581C65.576 17.6698 65.6523 17.6554 65.7536 17.656Z" fill="#DF6951"/>
</g>
</svg>
